<svg width="28" height="28" viewBox="0 0 28 28" fill="none" xmlns="http://www.w3.org/2000/svg">
    <path fill-rule="evenodd" clip-rule="evenodd"
        d="M24.5865 12.4055C25.1378 12.9463 25.1378 13.823 24.5865 14.3637L15.1747 23.5945C14.6234 24.1352 13.7295 24.1352 13.1782 23.5945L9.4135 19.9021C8.86217 19.3614 8.86217 18.4847 9.4135 17.944C9.96482 17.4033 10.8587 17.4033 11.41 17.944L14.1765 20.6572L22.59 12.4055C23.1413 11.8648 24.0352 11.8648 24.5865 12.4055Z"
        fill="black" />
    <circle cx="14" cy="14" r="14" fill="black" />
    <path fill-rule="evenodd" clip-rule="evenodd"
        d="M22.5865 9.40554C23.1378 9.94627 23.1378 10.823 22.5865 11.3637L13.1747 20.5945C12.6234 21.1352 11.7295 21.1352 11.1782 20.5945L7.4135 16.9021C6.86217 16.3614 6.86217 15.4847 7.4135 14.944C7.96482 14.4033 8.8587 14.4033 9.41003 14.944L12.1765 17.6572L20.59 9.40554C21.1413 8.86482 22.0352 8.86482 22.5865 9.40554Z"
        fill="white" />
</svg>