<svg width="21" height="21" viewBox="0 0 21 21" fill="none" xmlns="http://www.w3.org/2000/svg">
    <path fill-rule="evenodd" clip-rule="evenodd"
        d="M9.09138 2.33253C5.35858 2.33253 2.33253 5.35858 2.33253 9.09138C2.33253 12.8242 5.35858 15.8503 9.09138 15.8503C12.8242 15.8503 15.8503 12.8242 15.8503 9.09138C15.8503 5.35858 12.8242 2.33253 9.09138 2.33253ZM0.642822 9.09138C0.642822 4.42538 4.42538 0.642822 9.09138 0.642822C13.7574 0.642822 17.5399 4.42538 17.5399 9.09138C17.5399 13.7574 13.7574 17.5399 9.09138 17.5399C4.42538 17.5399 0.642822 13.7574 0.642822 9.09138Z"
        fill="#7E7E7E" />
    <path
        d="M15.329 14.0721L20.0968 18.84C20.4441 19.1873 20.4441 19.7504 20.0968 20.0977C19.7495 20.445 19.1864 20.445 18.8391 20.0977L14.0713 15.3298L15.329 14.0721Z"
        fill="#7E7E7E" />
</svg>